<svg xmlns="http://www.w3.org/2000/svg">
  
    <symbol id="home_icon" viewBox="0 0 24 24">
        <path 
            d="M10,20V14H14V20H19V12H22L12,3L2,12H5V20H10Z"
        ></path>
    </symbol>

    <symbol id="contact_icon" viewBox="0 0 24 24">
        <path 
            d="M6.62,10.79C8.06,13.62 10.38,15.94 13.21,17.38L15.41,15.18C15.69,14.9 16.08,14.82 16.43,14.93C17.55,15.3 18.75,15.5 20,15.5A1,1 0 0,1 21,16.5V20A1,1 0 0,1 20,21A17,17 0 0,1 3,4A1,1 0 0,1 4,3H7.5A1,1 0 0,1 8.5,4C8.5,5.25 8.7,6.45 9.07,7.57C9.18,7.92 9.1,8.31 8.82,8.59L6.62,10.79Z">
        </path>
    </symbol>

    <symbol id="project_icon" viewBox="0 0 24 24">
        <path  
            d="M10,2H14A2,2 0 0,1 16,4V6H20A2,2 0 0,1 22,8V19A2,2 0 0,1 20,21H4C2.89,21 2,20.1 2,19V8C2,6.89 2.89,6 4,6H8V4C8,2.89 8.89,2 10,2M14,6V4H10V6H14Z">
        </path>
    </symbol>

    <symbol id="speaker_icon" viewBox="0 0 24 24">
        <path 
            d="M14,3.23V5.29C16.89,6.15 19,8.83 19,12C19,15.17 16.89,17.84 14,18.7V20.77C18,19.86 21,16.28 21,12C21,7.72 18,4.14 14,3.23M16.5,12C16.5,10.23 15.5,8.71 14,7.97V16C15.5,15.29 16.5,13.76 16.5,12M3,9V15H7L12,20V4L7,9H3Z">
        </path>        
    </symbol>

</svg>